<svg xmlns="http://www.w3.org/2000/svg" preserveAspectRatio="xMidYMid" width="54.94" height="56.94" viewBox="0 0 54.94 56.94"><defs><style>.cls-1{fill:#000;fill-rule:evenodd}</style></defs><path d="M54.62 43.04l-5.599 5.277 1.32 7.439c.066.374-.084.753-.388.98a.996.996 0 0 1-1.047.089l-6.956-3.534-6.956 3.534a.992.992 0 0 1-1.047-.089 1.005 1.005 0 0 1-.388-.98l1.32-7.439-5.599-5.277a1.002 1.002 0 0 1 .545-1.721l7.767-1.091 3.468-6.792c.341-.669 1.435-.669 1.777 0l3.468 6.792 7.767 1.091c.38.053.697.321.813.689.116.367.012.768-.265 1.032zm-9.109-.9a.996.996 0 0 1-.75-.535l-2.815-5.514-2.815 5.514a.996.996 0 0 1-.75.535l-6.217.873 4.473 4.215c.246.232.36.573.3.905l-1.063 5.996 5.622-2.857a.992.992 0 0 1 .902 0l5.622 2.857-1.063-5.996a1.004 1.004 0 0 1 .3-.905l4.471-4.215-6.217-.873zm-24.849-4.424l-6.849 8.012a.991.991 0 0 1-1.357.151L7.89 42.445a1.003 1.003 0 0 1-.199-1.402.994.994 0 0 1 1.397-.2l3.817 2.87 6.241-7.299a.996.996 0 0 1 1.408-.11c.419.36.467.993.108 1.412zM13.054 17.03a.984.984 0 0 1-.598-.201L7.89 13.395a1.002 1.002 0 0 1-.199-1.402.997.997 0 0 1 1.397-.2l3.817 2.87 6.241-7.3a.995.995 0 0 1 1.407-.108 1 1 0 0 1 .109 1.41l-6.849 8.014a.994.994 0 0 1-.759.351zm7.608 5.659l-6.849 8.014a.994.994 0 0 1-1.357.15L7.89 27.419a1.002 1.002 0 0 1-.199-1.402.996.996 0 0 1 1.397-.2l3.817 2.871 6.241-7.301a.995.995 0 0 1 1.407-.108 1 1 0 0 1 .109 1.41zm24.282-8.663H26.966a1 1 0 0 1-.999-1.002 1 1 0 0 1 .999-1.002h17.978a1 1 0 0 1 .999 1.002 1 1 0 0 1-.999 1.002zm0 14.024H26.966a1 1 0 0 1-.999-1.002 1 1 0 0 1 .999-1.002h17.978a1 1 0 0 1 .999 1.002 1 1 0 0 1-.999 1.002zm7.991 9.096a1 1 0 0 1-.999-1.002V12.198c0-5.621-4.56-10.193-10.164-10.193H12.16c-5.605 0-10.164 4.572-10.164 10.193v29.7c0 5.621 4.559 10.193 10.164 10.193h14.806a1 1 0 0 1 .999 1.001 1 1 0 0 1-.999 1.002H12.16c-6.706 0-12.161-5.471-12.161-12.196v-29.7C-.001 5.473 5.454.001 12.16.001h29.612c6.706 0 12.161 5.472 12.161 12.197v23.946a1 1 0 0 1-.998 1.002z" class="cls-1"/></svg>