<svg xmlns="http://www.w3.org/2000/svg" preserveAspectRatio="xMidYMid" width="74" height="74" viewBox="0 0 74 74"><defs><style>.cls-1{stroke:#fff;stroke-linejoin:round;stroke-opacity:.54;stroke-width:1px;fill:none;fill-rule:evenodd}</style></defs><path d="M68.4 54.377c-.179-.537-1.314-1.325-3.404-2.375-.568-.326-1.374-.776-2.418-1.341-1.046-.57-1.993-1.09-2.845-1.572-.85-.473-1.65-.94-2.396-1.386a91.4 91.4 0 0 0-1.119-.785c-.627-.431-1.158-.754-1.591-.963a2.907 2.907 0 0 0-1.276-.314c-.597 0-1.344.426-2.239 1.277a21.84 21.84 0 0 0-2.464 2.78 26.613 26.613 0 0 1-2.373 2.774c-.837.853-1.523 1.279-2.06 1.279-.269 0-.605-.074-1.008-.226-.403-.15-.71-.273-.918-.377a18.262 18.262 0 0 1-1.075-.627 39.937 39.937 0 0 0-.851-.519c-4.091-2.27-7.599-4.868-10.525-7.796-2.927-2.924-5.524-6.435-7.793-10.527a27.71 27.71 0 0 0-.515-.853 15.657 15.657 0 0 1-.628-1.073 9.354 9.354 0 0 1-.38-.919c-.15-.402-.224-.739-.224-1.009 0-.537.426-1.223 1.277-2.057a26.993 26.993 0 0 1 2.776-2.376c1-.746 1.926-1.569 2.777-2.464.851-.896 1.277-1.643 1.277-2.242 0-.415-.105-.845-.314-1.276-.209-.429-.53-.962-.963-1.591a77.746 77.746 0 0 0-.783-1.119 85.147 85.147 0 0 1-1.389-2.398 183.944 183.944 0 0 1-1.568-2.845 112.008 112.008 0 0 0-1.343-2.417c-1.046-2.091-1.836-3.227-2.374-3.404-.209-.093-.523-.137-.94-.137-.807 0-1.859.153-3.158.449-1.298.298-2.322.613-3.068.94-1.493.63-3.076 2.452-4.747 5.466-1.523 2.811-2.285 5.587-2.285 8.332 0 .809.052 1.592.157 2.351.105.767.292 1.625.56 2.578.269.957.485 1.666.65 2.128.163.463.47 1.293.918 2.485.447 1.196.717 1.928.806 2.198 1.045 2.928 2.284 5.538 3.717 7.837 2.359 3.826 5.576 7.777 9.652 11.85 4.075 4.08 8.024 7.297 11.847 9.657 2.298 1.434 4.911 2.674 7.837 3.72.269.088 1 .357 2.195.803 1.193.45 2.022.757 2.486.919.462.167 1.171.383 2.127.65.955.27 1.814.457 2.575.559.762.104 1.545.16 2.351.16 2.747 0 5.524-.763 8.331-2.288 3.016-1.672 4.837-3.254 5.464-4.746.328-.746.642-1.771.94-3.07.299-1.299.448-2.351.448-3.158 0-.416-.044-.732-.134-.942z" class="cls-1"/></svg>