<?xml version="1.0" encoding="utf-8"?>
<!-- Generator: Adobe Illustrator 21.0.0, SVG Export Plug-In . SVG Version: 6.00 Build 0)  -->
<svg version="1.1" id="Layer_1" xmlns="http://www.w3.org/2000/svg" xmlns:xlink="http://www.w3.org/1999/xlink" x="0px" y="0px"
	 viewBox="0 0 76.2 69" style="enable-background:new 0 0 76.2 69;" xml:space="preserve">
<g>
	<path d="M71.9,46H61H15.1H4.3C1.9,46,0,48,0,50.3v3.5C0,56.1,1.9,58,4.3,58h1v1c0,5.5,4.5,9.9,9.9,9.9H61c5.5,0,9.9-4.5,9.9-9.9v-1
		h1c2.3,0,4.3-1.9,4.3-4.3v-3.5C76.2,48,74.3,46,71.9,46z M68,59c0,3.8-3.1,6.9-6.9,6.9H15.1c-3.8,0-6.9-3.1-6.9-6.9v-1H68V59z
		 M73.2,53.7c0,0.7-0.6,1.3-1.3,1.3h-1h-3H8.3h-3h-1C3.6,55,3,54.4,3,53.7v-3.5C3,49.6,3.6,49,4.3,49H8h7.1H61h7.1h3.8
		c0.7,0,1.3,0.6,1.3,1.3V53.7z"/>
	<polygon points="16.2,37.9 21.6,41.9 27.1,37.9 32.6,41.9 38.1,37.9 43.5,41.9 49,37.9 54.5,41.9 60,37.9 65.5,41.9 71.8,37.2 
		70.1,34.8 65.5,38.1 60,34.1 54.5,38.1 49,34.1 43.5,38.1 38.1,34.1 32.6,38.1 27.1,34.1 21.6,38.1 16.2,34.1 10.7,38.1 6.1,34.8 
		4.3,37.2 10.7,41.9 	"/>
	<path d="M8.3,31.1h59.6h3c0-0.6,0.1-1.2,0.1-1.8c0-0.4,0-0.8,0-1.2C70.2,12.5,55.8,0,38.1,0C20.4,0,5.9,12.5,5.2,28.1
		c0,0.4,0,0.8,0,1.2c0,0.6,0,1.2,0.1,1.8H8.3z M38.1,3c16,0,29.2,11.2,29.8,25.1H8.2C8.9,14.2,22.1,3,38.1,3z"/>
	<circle cx="38.1" cy="15" r="2"/>
	<circle cx="30.1" cy="10.1" r="2"/>
	<circle cx="46.1" cy="10.1" r="2"/>
</g>
</svg>
