<svg xmlns="http://www.w3.org/2000/svg" preserveAspectRatio="xMidYMid" width="79" height="66" viewBox="0 0 79 66"><defs><style>.cls-3{stroke:#fff;stroke-linejoin:round;stroke-opacity:.54;stroke-width:1px;fill:none;fill-rule:evenodd}</style></defs><path d="M69.747 26.623c-8.309 5.794-14.616 10.293-18.922 13.511-1.444 1.09-2.616 1.946-3.514 2.559-.901.615-2.097 1.24-3.591 1.881-1.495.641-2.888.956-4.18.956h-.076c-1.291 0-2.685-.315-4.179-.956-1.495-.641-2.692-1.266-3.591-1.881-.899-.613-2.07-1.469-3.515-2.559-3.42-2.589-9.714-7.093-18.884-13.511a20.347 20.347 0 0 1-3.837-3.407v31.081c0 1.724.595 3.199 1.786 4.429 1.19 1.224 2.621 1.84 4.293 1.84h55.93c1.672 0 3.103-.616 4.293-1.84 1.191-1.23 1.786-2.705 1.786-4.429V23.216a21.18 21.18 0 0 1-3.799 3.407zm1.995-19.339c-1.204-1.227-2.629-1.838-4.275-1.838h-55.93c-1.95 0-3.451.678-4.502 2.037-1.052 1.352-1.577 3.051-1.577 5.085 0 1.645.697 3.424 2.09 5.343 1.393 1.918 2.874 3.428 4.445 4.526.861.623 3.458 2.487 7.79 5.571 4.331 3.094 7.649 5.479 9.954 7.15.253.182.792.58 1.615 1.196a90.09 90.09 0 0 0 2.052 1.484 41.4 41.4 0 0 0 1.976 1.274c.772.47 1.501.823 2.184 1.054.684.24 1.317.352 1.9.352h.076c.582 0 1.216-.112 1.899-.352.685-.231 1.413-.584 2.186-1.054a41.83 41.83 0 0 0 1.975-1.274 90.09 90.09 0 0 0 2.052-1.484c.823-.616 1.361-1.014 1.615-1.196 2.331-1.671 8.258-5.913 17.782-12.721a18.412 18.412 0 0 0 4.635-4.822c1.241-1.877 1.862-3.844 1.862-5.908 0-1.72-.602-3.199-1.804-4.423z" class="cls-3"/></svg>