<svg xmlns="http://www.w3.org/2000/svg" preserveAspectRatio="xMidYMid" width="44" height="63" viewBox="0 0 44 63"><defs><style>.cls-2{fill:#fff;fill-rule:evenodd}</style></defs><path d="M39.599 37.506L22 62.995 4.374 37.471c-6.576-8.789-5.62-23.295 2.069-31.005C10.599 2.299 16.122.004 22 .004c5.876 0 11.401 2.295 15.556 6.462 7.689 7.71 8.645 22.216 2.043 31.04zM35.933 8.092C32.211 4.361 27.263 2.305 22 2.305A19.55 19.55 0 0 0 8.067 8.092C1.126 15.051.272 28.152 6.236 36.125L22 58.952l15.738-22.79c5.991-8.01 5.136-21.111-1.805-28.07zm-13.73 21.822c-4.427 0-8.031-3.613-8.031-8.053 0-4.439 3.604-8.052 8.031-8.052 4.427 0 8.03 3.613 8.03 8.052 0 4.44-3.603 8.053-8.03 8.053zm0-13.805c-3.163 0-5.736 2.581-5.736 5.752 0 3.172 2.573 5.752 5.736 5.752s5.736-2.58 5.736-5.752c0-3.171-2.573-5.752-5.736-5.752z" class="cls-2"/></svg>