<svg xmlns="http://www.w3.org/2000/svg" preserveAspectRatio="xMidYMid" width="60" height="60" viewBox="0 0 60 60"><defs><style>.cls-1{fill:#000;fill-rule:evenodd}</style></defs><path d="M30 60C13.458 60 0 46.542 0 30S13.458 0 30 0s30 13.458 30 30-13.458 30-30 30zm0-58C14.561 2 2 14.561 2 30s12.561 28 28 28 28-12.561 28-28S45.439 2 30 2zm22 28.879h-1a1 1 0 1 1 0-2h1a1 1 0 1 1 0 2zm-6.444 15.556a.997.997 0 0 1-.707-.293l-.707-.707a.999.999 0 1 1 1.414-1.414l.707.707a.999.999 0 0 1-.707 1.707zm0-30.699a.997.997 0 0 1-1.414 0 .999.999 0 0 1 0-1.414l.707-.707a1 1 0 1 1 1.414 1.414l-.707.707zM30 33.879c-1.858 0-3.411-1.28-3.858-3H19a1 1 0 1 1 0-2h7.142A3.995 3.995 0 0 1 29 26.021V15.879a1 1 0 1 1 2 0v10.142c1.72.447 3 1.999 3 3.858 0 2.206-1.794 4-4 4zm0-6c-1.103 0-2 .897-2 2s.897 2 2 2 2-.897 2-2-.897-2-2-2zm0-18a1 1 0 0 1-1-1v-1a1 1 0 1 1 2 0v1a1 1 0 0 1-1 1zM15.151 46.142a.997.997 0 0 1-1.414 0 .999.999 0 0 1 0-1.414l.707-.707a1 1 0 1 1 1.414 1.414l-.707.707zm0-30.113a.997.997 0 0 1-.707-.293l-.707-.707a.999.999 0 1 1 1.414-1.414l.707.707a.999.999 0 0 1-.707 1.707zM30 49.879a1 1 0 0 1 1 1v1a1 1 0 1 1-2 0v-1a1 1 0 0 1 1-1zm-21-19H8a1 1 0 1 1 0-2h1a1 1 0 1 1 0 2z" class="cls-1"/></svg>